<svg width="193" height="49" viewBox="0 0 193 49" fill="none" xmlns="http://www.w3.org/2000/svg">
<g clip-path="url(#clip0_71_1468)">
<path d="M140.071 17.9883V20.1167H137.573V17.8523C137.573 15.7239 136.729 14.4441 134.807 14.4441C132.884 14.4441 132.041 15.7286 132.041 17.8523V30.3414C132.041 32.4698 132.917 33.7497 134.807 33.7497C136.696 33.7497 137.573 32.4651 137.573 30.3414V27.2707H140.071V30.2055C140.071 33.7825 138.384 36.1453 134.736 36.1453C131.089 36.1453 129.434 33.7825 129.434 30.2055V17.9836C129.434 14.4066 131.122 12.0437 134.736 12.0437C138.351 12.0437 140.071 14.4066 140.071 17.9836V17.9883Z" fill="white"/>
<path d="M145.102 25.283V35.9156H142.467V12.2828H145.102V22.9155H150.91V12.2828H153.545V35.9109H150.91V25.2783H145.102V25.283Z" fill="white"/>
<path d="M164.646 22.7514V25.1142H158.875V33.52H165.964V35.9156H156.241V12.2828H165.964V14.6785H158.875V22.7467H164.646V22.7514Z" fill="white"/>
<path d="M178.823 17.9883V20.1167H176.324V17.8523C176.324 15.7239 175.481 14.4441 173.558 14.4441C171.636 14.4441 170.792 15.7286 170.792 17.8523V30.3414C170.792 32.4698 171.669 33.7497 173.558 33.7497C175.448 33.7497 176.324 32.4651 176.324 30.3414V27.2707H178.823V30.2055C178.823 33.7825 177.135 36.1453 173.488 36.1453C169.841 36.1453 168.186 33.7825 168.186 30.2055V17.9836C168.186 14.4066 169.874 12.0438 173.488 12.0438C177.103 12.0438 178.823 14.4066 178.823 17.9836V17.9883Z" fill="white"/>
<path d="M185.236 25.6533L183.854 27.9833V35.9156H181.219V12.2828H183.854V23.6937L190.131 12.2828H192.798L186.821 23.0514L193 35.9109H190.3L185.236 25.6486V25.6533Z" fill="white"/>
<path d="M66.9884 27.0691V30.2102C66.9884 33.9888 65.0991 36.15 61.4517 36.15C57.8044 36.15 55.9151 33.9888 55.9151 30.2102V17.9226C55.9151 14.1393 57.8044 11.9828 61.4517 11.9828C65.0991 11.9828 66.9884 14.144 66.9884 17.9226V20.2198H63.477V17.6882C63.477 16.0005 62.7363 15.3582 61.5549 15.3582C60.3734 15.3582 59.6327 16.0005 59.6327 17.6882V30.4493C59.6327 32.137 60.3734 32.7464 61.5549 32.7464C62.7363 32.7464 63.477 32.137 63.477 30.4493V27.0738H66.9884V27.0691Z" fill="white"/>
<path d="M77.0162 35.8828C76.8146 35.2733 76.6787 34.903 76.6787 32.9808V29.2679C76.6787 27.0738 75.938 26.2628 74.2502 26.2628H72.9657V35.8828H69.2527V12.25H74.855C78.7039 12.25 80.3589 14.0409 80.3589 17.6835V19.54C80.3589 21.9685 79.5806 23.5577 77.9304 24.3313C79.7869 25.1095 80.3964 26.8957 80.3964 29.3616V33.009C80.3964 34.1575 80.4292 35.0014 80.7995 35.8781H77.0209L77.0162 35.8828ZM72.961 15.6255V22.8826H74.4143C75.7973 22.8826 76.6412 22.2732 76.6412 20.3839V18.0539C76.6412 16.3662 76.0692 15.6255 74.7519 15.6255H72.961Z" fill="white"/>
<path d="M86.5331 22.2076H91.6291V25.583H86.5331V32.5026H92.9464V35.8781H82.8201V12.25H92.9464V15.6255H86.5331V22.2076Z" fill="white"/>
<path d="M95.2389 12.25H101.113C104.826 12.25 106.65 14.3081 106.65 18.0914V30.0414C106.65 33.82 104.826 35.8828 101.113 35.8828H95.2389V12.25ZM98.9519 15.6255V32.5026H101.043C102.224 32.5026 102.932 31.8932 102.932 30.2055V17.9179C102.932 16.2302 102.224 15.6208 101.043 15.6208H98.9519V15.6255Z" fill="white"/>
<path d="M109.013 12.25H112.726V35.8781H109.013V12.25Z" fill="white"/>
<path d="M114.348 12.25H125.824V15.6255H121.942V35.8781H118.229V15.6255H114.348V12.25Z" fill="white"/>
<path d="M43.8338 24.4204V14.6363L21.9028 27.0223L10.6139 20.5058V30.3789L21.9028 36.8954L43.8338 24.4204Z" fill="white"/>
<path d="M8.26045 31.7994V16.535L20.7402 9.48873V0L0 11.7109V36.6235L20.7402 48.3344V38.8457L8.26045 31.7994Z" fill="white"/>
<path d="M35.5734 16.535L43.8338 11.7109L23.0936 0V9.48873L35.5734 16.535Z" fill="white"/>
<path d="M35.5734 31.7994L23.0936 38.8457V48.3344L43.8338 36.6235L35.5734 31.7994Z" fill="white"/>
</g>
<defs>
<clipPath id="clip0_71_1468">
<rect width="193" height="48.3344" fill="white"/>
</clipPath>
</defs>
</svg>
